<svg id="Layer_2" data-name="Layer 2" xmlns="http://www.w3.org/2000/svg" viewBox="0 0 500 467.58"><defs><style>.cls-1{fill:#6b4c9f;}.cls-2{fill:#fff;fill-rule:evenodd;}</style></defs><rect class="cls-1" width="500" height="467.58" rx="131.32"/><path class="cls-2" d="M250,98.5s-74.82,1.87-92.67,3.62-31.32,5.69-33.07,6.46-20.58,17.3-31.75,34.49-16.1,26.6-16.1,26.6H70.94S74,163.87,74,158.4s-4.81-11.06-20.8-11.06-22.34,6.13-22.34,14.23,2.52,12.37,15.44,15,23.11,4.27,23.11,4.27A38.32,38.32,0,0,1,55.28,194c-9.09,4.6-34.49,25.73-44,42.37a129.9,129.9,0,0,0-5.8,31.76c-.65,16.42.22,68.87.33,73.25s1.53,19.38,1.53,19.38S11.7,384.39,20,390.41c0,0,12.76,11.09,41.37,11.09,20.07,0,43.7,0,61.09-9.8,49.06.57,102.49,1.12,127.52,1.12s78.46-.55,127.52-1.12c17.39,9.8,41,9.8,61.09,9.8,28.61,0,41.37-11.09,41.37-11.09,8.32-6,12.7-29.67,12.7-29.67s1.42-15,1.53-19.38,1-56.83.33-73.25a129.9,129.9,0,0,0-5.8-31.76c-9.53-16.64-34.93-37.77-44-42.37a38.32,38.32,0,0,1-14.13-13.14s10.19-1.64,23.11-4.27,15.44-6.9,15.44-15-6.35-14.23-22.34-14.23S426,152.92,426,158.4s3.06,11.27,3.06,11.27h-5.47s-4.93-9.41-16.1-26.6-30-33.73-31.75-34.49-15.22-4.71-33.07-6.46S250,98.5,250,98.5Z" transform="translate(0 -16.21)"/><path class="cls-1" d="M122.61,380.66c2.53,1.91,127.39,1.69,127.39,1.69s124.86.22,127.39-1.69c3-2.53-14.36-23.65-23-27.67S250,349.61,250,349.61,154.29,349,145.63,353,119.65,378.13,122.61,380.66Z" transform="translate(0 -16.21)"/><path class="cls-1" d="M24.39,272.73c11.83,8.66,73.08,18.16,77.52,16.26S122,255.21,122,255.21s-16.47-2.76-35.27-3.81-69.49-5.28-69.49-5.28S12.56,264.07,24.39,272.73Z" transform="translate(0 -16.21)"/><path class="cls-1" d="M83.3,189.14s31.59-.74,52.85-1.59S250,186.29,250,186.29s92.6.42,113.86,1.26,52.84,1.59,52.84,1.59-34.83-59.25-41.81-63.37c-2.73-1.58-61.9-8.13-124.89-8.13s-122.16,6.55-124.89,8.13C118.13,129.89,83.3,189.14,83.3,189.14Z" transform="translate(0 -16.21)"/><path class="cls-1" d="M413.3,251.4c-18.8,1-35.27,3.81-35.27,3.81s15.63,31.88,20.06,33.78,65.69-7.6,77.52-16.26,7.18-26.61,7.18-26.61S432.1,250.34,413.3,251.4Z" transform="translate(0 -16.21)"/><path class="cls-1" d="M250,308.64c85.1,0,116.83-3.59,119.58-7.4s-13.47-32.42-20.65-36.66c-8.24-4.86-98.93-3.26-98.93-3.26s-90.69-1.6-98.93,3.26c-7.18,4.24-23.39,32.86-20.65,36.66S164.9,308.64,250,308.64Z" transform="translate(0 -16.21)"/></svg>