<svg id="Layer_1" data-name="Layer 1" xmlns="http://www.w3.org/2000/svg" viewBox="0 0 306.86 454.72"><defs><style>.cls-1{fill:#1b0f34;}.cls-2{fill:#fff;}</style></defs><path class="cls-1" d="M252.38,490.89c-17,0-34.92-4.21-49.19-12.44L160.88,454c-11.82-6.82-19.38-15.54-21.78-24.92H139l-.26-1.55c-.07-.41-.16-.87-.21-1.3l-.25-1.42L97.22,145.66a7.62,7.62,0,0,1,7.53-8.72h290.5a7.62,7.62,0,0,1,7.54,8.69L361.73,424.89c.28,10.23-5.59,19.3-16.66,25.7l-54.18,31.28C280.42,487.92,266.7,490.89,252.38,490.89ZM147.53,419.12h.35l.41,4.64c.56,7.6,7,15.5,17.57,21.63l42.31,24.42c23.05,13.31,57.92,14.84,77.73,3.43L340.08,442c5.65-3.25,12.25-8.94,11.63-17.48l-.39-5.35h1.17l40-272.2h-285Z" transform="translate(-96.57 -36.17)"/><path class="cls-1" d="M393.06,142H247.82V485.74c14.34.35,28.2-2.27,38.38-8.15l54.18-31.28c10.19-5.87,14.72-13.88,14.12-22.17h.11l41-279.17A2.62,2.62,0,0,0,393.06,142Z" transform="translate(-96.57 -36.17)"/><path class="cls-2" d="M378.56,172.7l-75.25,43.43c-29.44,17-80.87,14.87-114.87-4.75L129.7,177.46c-34-19.62-37.7-49.33-8.25-66.32L196.7,67.69c29.43-17,80.86-14.87,114.87,4.76l58.74,33.92C404.31,126,408,155.71,378.56,172.7Z" transform="translate(-96.57 -36.17)"/><path class="cls-1" d="M253.43,232.5c-23.49,0-48.22-5.7-67.49-16.81L127.2,181.76C107.74,170.55,96.57,155.3,96.57,140c0-13,8-24.8,22.37-33.13l75.25-43.43C225,45.61,278.74,47.72,314.06,68.14l58.74,33.92c19.46,11.23,30.63,26.48,30.63,41.83,0,13-8,24.78-22.37,33.12l-75.25,43.45C291.82,228.54,273.05,232.5,253.43,232.5ZM246.57,61.14c-17.8,0-34.75,3.58-47.39,10.87l-75.25,43.44c-11.2,6.5-17.38,15.18-17.38,24.5,0,11.69,9.34,23.78,25.63,33.19l58.75,33.92c32.57,18.8,81.87,20.94,109.89,4.77l75.25-43.46c11.21-6.46,17.39-15.18,17.39-24.48,0-11.68-9.35-23.8-25.63-33.2L309.07,76.78C291.19,66.46,268.26,61.14,246.57,61.14Z" transform="translate(-96.57 -36.17)"/><path class="cls-1" d="M252.3,206.45c-16.46,0-33.73-4.06-47.51-12L164,170.9c-14-8.08-22-19.14-22-30.35,0-9.6,5.78-18.25,16.28-24.3L210.52,86.1c22.12-12.77,59.33-11.34,84.69,3.31L336,113c14,8,22,19.14,22,30.35,0,9.59-5.79,18.24-16.29,24.29l-52.22,30.14C279.37,203.59,266.12,206.45,252.3,206.45ZM247.63,87.38c-12.09,0-23.56,2.41-32.12,7.35L163.3,124.87c-5.16,3-11.3,8.11-11.3,15.68s6.2,15.47,17,21.71l40.76,23.53c22.18,12.81,55.71,14.29,74.72,3.31L336.71,159c5.15-3,11.3-8.11,11.3-15.66s-6.21-15.48-17-21.74L290.23,98C278,91,262.4,87.38,247.63,87.38Z" transform="translate(-96.57 -36.17)"/><path class="cls-1" d="M256.57,83c-16.1-1.46-32.18.84-43.56,7.4l-52.2,30.14c-20.44,11.81-17.88,32.41,5.72,46l40.76,23.53c14.06,8.13,32.41,11.81,49.28,11.06Z" transform="translate(-96.57 -36.17)"/><path class="cls-2" d="M209.81,115.41,257,55a24,24,0,0,1,30-6.49l26.55,13.82a24,24,0,0,1,11.62,29l-23.29,68.24a24.11,24.11,0,0,0-1.28,7.77v4.31a23.94,23.94,0,0,1-12,20.76l-10,5.78a24,24,0,0,1-25.16-.74L212.6,170.62A24,24,0,0,1,202,147.15L205,126.76A24.08,24.08,0,0,1,209.81,115.41Z" transform="translate(-96.57 -36.17)"/><path class="cls-1" d="M266.64,205.15a27.5,27.5,0,0,1-15.21-4.6l-40.86-26.81a27.8,27.8,0,0,1-12.24-27.13l2.93-20.38a28,28,0,0,1,5.59-13.13l47.23-60.41a27.78,27.78,0,0,1,34.65-7.53L315.28,59a27.55,27.55,0,0,1,13.44,33.54l-23.31,68.22a20.71,20.71,0,0,0-1.09,6.57v4.31a27.78,27.78,0,0,1-13.85,24l-10,5.75A27.61,27.61,0,0,1,266.64,205.15Zm-53.88-87.44a20.22,20.22,0,0,0-4.09,9.57l-2.93,20.4a20.31,20.31,0,0,0,8.92,19.81l40.87,26.83a20.14,20.14,0,0,0,21.23.61l10-5.76a20.29,20.29,0,0,0,10.14-17.53v-4.31a27.56,27.56,0,0,1,1.47-9l23.32-68.23a20.14,20.14,0,0,0-9.82-24.5L285.27,51.81A20.21,20.21,0,0,0,260,57.31Z" transform="translate(-96.57 -36.17)"/><path class="cls-2" d="M199.71,46.71l-31.08,54.71a13.45,13.45,0,0,0,5.6,18.63l49,25a13.44,13.44,0,0,0,16.38-3.33l27-32a13.47,13.47,0,0,0-.5-17.9L221.2,44.14A13.46,13.46,0,0,0,199.71,46.71Z" transform="translate(-96.57 -36.17)"/><path class="cls-1" d="M229.39,150.24a17.3,17.3,0,0,1-7.83-1.87l-49-25a17.18,17.18,0,0,1-7.15-23.82l31.08-54.7a17.19,17.19,0,0,1,27.46-3.29l44.91,47.67a17.22,17.22,0,0,1,.65,22.87l-27,32A17.14,17.14,0,0,1,229.39,150.24ZM211.44,43.65c-.39,0-.78,0-1.19.06A9.66,9.66,0,0,0,203,48.56l-31.07,54.7a9.74,9.74,0,0,0,4,13.46l49,25a9.64,9.64,0,0,0,11.84-2.42l27-32a9.72,9.72,0,0,0-.37-12.93L218.48,46.7A9.59,9.59,0,0,0,211.44,43.65Z" transform="translate(-96.57 -36.17)"/><polygon class="cls-1" points="71.13 419.42 42.28 149.97 52.2 148.91 81.04 418.35 71.13 419.42"/><path class="cls-2" d="M138.83,394.2,232,445.14Z" transform="translate(-96.57 -36.17)"/><rect class="cls-1" x="180.45" y="366.57" width="9.98" height="106.22" transform="translate(-368.34 345.01) rotate(-61.35)"/></svg>