<svg id="Layer_1" data-name="Layer 1" xmlns="http://www.w3.org/2000/svg" viewBox="0 0 431.6 336.52"><defs><style>.cls-1{fill:#bcd97a;}.cls-2{fill:#fff;}</style></defs><path class="cls-1" d="M457.59,199.86l-7.74-74.53A13,13,0,0,0,428.17,117l-11.92,10.68a121.2,121.2,0,0,0-171.85-8.49c49.77-10,98.76,15.83,124.18,51.17L357,180.67A13.05,13.05,0,0,0,364,203.32l78.89,10.81A13,13,0,0,0,457.59,199.86Z" transform="translate(-34.2 -81.74)"/><path class="cls-2" d="M444.65,220a18.9,18.9,0,0,1-2.59-.18L363.17,209a18.77,18.77,0,0,1-10-32.57l7.65-6.85c-23.07-29-67.59-54.43-115.32-44.82l-20.15,4.06,15.17-13.87a126.89,126.89,0,0,1,176,4.73l7.77-7a18.75,18.75,0,0,1,31.17,12l7.74,74.53A18.76,18.76,0,0,1,444.65,220ZM266.35,111.25a126.85,126.85,0,0,1,51.59,11.25c22.08,9.82,41.71,25.61,55.28,44.47l3,4.17-15.4,13.78a7.34,7.34,0,0,0,3.9,12.74l78.89,10.81a7.33,7.33,0,0,0,8.3-8l-7.74-74.53A7.33,7.33,0,0,0,432,121.21l-16.16,14.47L412,131.45a115.5,115.5,0,0,0-148-20.18Z" transform="translate(-34.2 -81.74)"/><path class="cls-2" d="M87,217.72H43.69q-4.69,0-6.57-2.34a7.84,7.84,0,0,1-1.88-4.95c0-2.23,1.26-4.94,3.76-8.13l37.31-46.91H42.23c-2.37,0-4-.61-4.95-1.82a6.29,6.29,0,0,1-1.41-3.91,6.89,6.89,0,0,1,.42-2.4A5,5,0,0,1,38.22,145a6.66,6.66,0,0,1,4-1.1H85q4.36,0,6.15,2.35a8,8,0,0,1,1.77,4.85c0,2.22-1.15,4.76-3.44,7.6L51.51,206.05H87q3.64,0,5.1,1.87a6.11,6.11,0,0,1,0,7.93Q90.6,217.73,87,217.72Z" transform="translate(-34.2 -81.74)"/><path class="cls-2" d="M146.05,185.2H117.49v20.85H149.7q3.65,0,5,1.87a6.5,6.5,0,0,1,0,7.93q-1.35,1.88-5,1.87H112.17q-7.82,0-7.82-7.82V151.74q0-7.81,7.82-7.82h35.55a6.91,6.91,0,0,1,4.16,1.15,4.91,4.91,0,0,1,1.93,2.29,7.3,7.3,0,0,1,0,4.59,4.86,4.86,0,0,1-1.93,2.29,6.84,6.84,0,0,1-4.16,1.15H117.49v18.76h28.56q3.64,0,4.95,1.77a6.26,6.26,0,0,1,1.3,3.76,7.14,7.14,0,0,1-.36,2.24,4.85,4.85,0,0,1-1.88,2.19A6.68,6.68,0,0,1,146.05,185.2Z" transform="translate(-34.2 -81.74)"/><path class="cls-2" d="M208.8,215.12l-18.14-28.67h-9.59v24.81q0,4.17-2.09,5.78a7,7,0,0,1-9,0q-2.09-1.6-2.09-5.78V151.74q0-7.81,7.82-7.82h17.83a42.8,42.8,0,0,1,13.29,1.93,21,21,0,0,1,9.9,6.88,21,21,0,0,1-.47,25.33A22.3,22.3,0,0,1,203.9,185l15.53,22.83A8,8,0,0,1,221,212.3a6.19,6.19,0,0,1-1.82,4.54,6.32,6.32,0,0,1-4.64,1.82C212.24,218.66,210.32,217.48,208.8,215.12ZM181.07,155v20.75h10.74q15.84,0,15.84-10.74c0-3.61-1.43-6.19-4.27-7.71A21.81,21.81,0,0,0,193,155Z" transform="translate(-34.2 -81.74)"/><path class="cls-2" d="M309.28,180.61q0,17.2-11.21,28.1T269.46,219.6q-17.19,0-28.35-10.89T230,180.61q0-17.51,11.11-28t28.4-10.52q17.52,0,28.67,10.52T309.28,180.61Zm-14.28,0q0-11.56-7-19.28t-18.4-7.71q-11.25,0-18.29,7.71t-7,19.28q0,11.89,7.08,19.55t18.24,7.66q11.26,0,18.35-7.66T295,180.61Z" transform="translate(-34.2 -81.74)"/><path class="cls-2" d="M135.21,247.66l-17.72,58.79q-2.3,7.4-8.55,7.4-6,0-8.44-7.4L85,258h-.21L69.23,306.45q-2.4,7.4-8.55,7.4t-8.44-7.4L34.72,248.07a13.19,13.19,0,0,1-.52-3.44A6.08,6.08,0,0,1,36.13,240a6.64,6.64,0,0,1,4.74-1.83q5.12,0,6.88,6.26l13.66,48.88h.21l14.8-47q2.6-8.13,8.65-8.13t8.65,8.13l14.49,47h.21l14-49.09q1.77-6,6.77-6.05a6.44,6.44,0,0,1,4.59,1.77,6.17,6.17,0,0,1,1.87,4.69A9.91,9.91,0,0,1,135.21,247.66Z" transform="translate(-34.2 -81.74)"/><path class="cls-2" d="M196.08,308.74,190.77,296H156.89l-5.32,12.83q-2,5-6.56,5a6.6,6.6,0,0,1-4.7-1.77,6.15,6.15,0,0,1-1.87-4.69,10,10,0,0,1,.94-3.86L166,244.43q2.81-6.26,8.13-6.26t8.23,6.26l26.37,58.89a9.11,9.11,0,0,1,.84,3.75,6.38,6.38,0,0,1-2,4.95,6.82,6.82,0,0,1-4.8,1.83Q198.16,313.85,196.08,308.74ZM174,255.16l-12.4,29.61h24.6Z" transform="translate(-34.2 -81.74)"/><path class="cls-2" d="M226.41,298.63a18.39,18.39,0,0,0,12.51,5,16.22,16.22,0,0,0,9.33-2.71q4-2.7,4-8.23a10.31,10.31,0,0,0-.52-3.39,6.54,6.54,0,0,0-1.93-2.76c-.93-.84-1.75-1.51-2.44-2a15.63,15.63,0,0,0-3.71-1.78l-3.8-1.4c-.77-.28-2.29-.77-4.59-1.46a53.07,53.07,0,0,1-6.77-2.61,31.35,31.35,0,0,1-5.79-3.7,15,15,0,0,1-4.53-6,22,22,0,0,1-1.56-8.6q0-10.53,8-16.11a32.16,32.16,0,0,1,18.92-5.58q9.9,0,16.26,4.8,3.23,2.29,3.23,5.52a5.62,5.62,0,0,1-1.62,4.07,5.48,5.48,0,0,1-4.11,1.67,7.55,7.55,0,0,1-4.38-1.67,17.48,17.48,0,0,0-9.9-3.44,16.38,16.38,0,0,0-9.07,2.55,8.42,8.42,0,0,0-4,7.56,9.12,9.12,0,0,0,.88,4.22,8.11,8.11,0,0,0,3.13,3.08,24.45,24.45,0,0,0,4.22,2.08q2,.74,5.84,2,3.65,1.16,6,2a38.6,38.6,0,0,1,5.63,2.66,20.75,20.75,0,0,1,5.21,3.91,18.27,18.27,0,0,1,3.34,5.47,19.51,19.51,0,0,1,1.41,7.56q0,11.36-7.67,17.46t-19.23,6.1q-12.71,0-20.22-6.57a6.93,6.93,0,0,1-2.92-5.42,6,6,0,0,1,1.77-4.33,5.89,5.89,0,0,1,4.38-1.82A7.15,7.15,0,0,1,226.41,298.63Z" transform="translate(-34.2 -81.74)"/><path class="cls-2" d="M276.55,239.11h47.32a6.85,6.85,0,0,1,4.17,1.15,4.86,4.86,0,0,1,1.93,2.29,7.3,7.3,0,0,1,0,4.59,4.86,4.86,0,0,1-1.93,2.29,6.85,6.85,0,0,1-4.17,1.15H306.78v55.87q0,4.17-2.09,5.78a7,7,0,0,1-9,0q-2.09-1.61-2.08-5.78V250.58h-17.1a6.85,6.85,0,0,1-4.17-1.15,5,5,0,0,1-1.93-2.29,7.5,7.5,0,0,1,0-4.59,5,5,0,0,1,1.93-2.29A6.85,6.85,0,0,1,276.55,239.11Z" transform="translate(-34.2 -81.74)"/><path class="cls-2" d="M379.64,280.39H351.08v20.85h32.21q3.65,0,5,1.87a6.45,6.45,0,0,1,0,7.92q-1.35,1.88-5,1.88H345.76q-7.81,0-7.82-7.82V246.93q0-7.81,7.82-7.82h35.55a6.89,6.89,0,0,1,4.17,1.15,4.89,4.89,0,0,1,1.92,2.29,7.3,7.3,0,0,1,0,4.59,4.89,4.89,0,0,1-1.92,2.29,6.89,6.89,0,0,1-4.17,1.15H351.08v18.76h28.56q3.64,0,4.95,1.77a6.21,6.21,0,0,1,1.3,3.75,7.1,7.1,0,0,1-.36,2.24,4.85,4.85,0,0,1-1.88,2.19A6.68,6.68,0,0,1,379.64,280.39Z" transform="translate(-34.2 -81.74)"/><path class="cls-2" d="M334.42,418.26a18.71,18.71,0,0,1-10.06-2.94l-63.24-40.19a18.76,18.76,0,0,1-2.93-29.37l22.12-21.82a5.71,5.71,0,0,1,8,8.13L266.16,354a7.33,7.33,0,0,0,1.09,11.54l63.23,40.19A7.33,7.33,0,0,0,341.74,399l-1.31-21.65,5.68-.37A115.49,115.49,0,0,0,453.77,273.51a126.46,126.46,0,0,1-42.26,35.32,5.71,5.71,0,0,1-5.3-10.12c21.43-11.24,38.2-27.85,48.48-48.06L464,232.34l1.46,20.5a126.89,126.89,0,0,1-113,135.1l.64,10.41a18.79,18.79,0,0,1-18.73,19.91Z" transform="translate(-34.2 -81.74)"/></svg>